<mxfile host="app.diagrams.net" modified="2024-05-05T17:33:03.742Z" agent="Mozilla/5.0 (X11; Ubuntu; Linux x86_64; rv:125.0) Gecko/20100101 Firefox/125.0" version="24.2.2" etag="abnuguvHeYkyB54j33Iy" type="github">
  <diagram name="Page-1" id="tJILqFW2gZN6IvqH7rxN">
    <mxGraphModel>
      <root>
        <mxCell id="0" />
        <mxCell id="1" parent="0" />
      </root>
    </mxGraphModel>
  </diagram>
</mxfile>
